<svg width="29" height="30" viewBox="0 0 29 30" fill="none" xmlns="http://www.w3.org/2000/svg">
<path d="M28.9955 7.90134C28.9955 7.00959 28.9203 6.12147 28.7073 5.25328C28.3248 3.67188 27.4231 2.46384 26.0737 1.57662C25.3795 1.1235 24.6156 0.845281 23.8036 0.698469C23.18 0.589545 22.5488 0.52955 21.9158 0.519031C21.8687 0.5145 21.8171 0.504531 21.7645 0.5H7.23641C7.05214 0.513896 6.86817 0.524771 6.6845 0.532625C5.78278 0.584281 4.8865 0.678531 4.03644 1.01838C2.42241 1.65547 1.25607 2.76925 0.576379 4.37422C0.340754 4.91706 0.222035 5.49253 0.137754 6.07797C0.0670664 6.55013 0.0290039 7.02681 0.0154102 7.5035C0.0154102 7.54156 0.00634766 7.57872 0.00634766 7.61678V22.3859L0.0344414 22.8962C0.0960664 23.8831 0.222941 24.86 0.63891 25.7662C1.42282 27.48 2.7396 28.6073 4.54757 29.1502C5.05235 29.3061 5.5816 29.3768 6.10994 29.4239C6.78057 29.49 7.45029 29.4991 8.12091 29.4991H21.45C22.0826 29.4979 22.7152 29.4571 23.3477 29.3768C24.3437 29.249 25.278 28.9562 26.1236 28.3998C27.1244 27.7514 27.9136 26.8243 28.3937 25.7327C28.6203 25.2225 28.7481 24.6806 28.8423 24.1323C28.9792 23.3158 29.0073 22.4893 29.0073 21.6637C29.0027 17.0753 29.0073 12.4879 29.0027 7.89953L28.9955 7.90134ZM21.2353 12.7199V19.621C21.2353 20.1258 21.1646 20.6215 20.938 21.0791C20.5891 21.7914 20.0227 22.24 19.2623 22.4575C18.8412 22.5786 18.407 22.6482 17.9691 22.6651C17.4186 22.6976 16.8752 22.5266 16.4426 22.1845C16.0099 21.8424 15.7182 21.3532 15.6228 20.81C15.5352 20.3212 15.6106 19.8171 15.8373 19.3754C16.0641 18.9336 16.4298 18.5786 16.878 18.3649C17.265 18.1764 17.6855 18.0631 18.1051 17.9779C18.5627 17.8792 19.0204 17.7894 19.4735 17.6852C19.8088 17.61 20.0254 17.407 20.0916 17.0617C20.1106 16.9865 20.1151 16.9058 20.1151 16.8306V10.2513C20.1135 10.1762 20.1025 10.1016 20.0825 10.0292C20.0354 9.84525 19.9031 9.7365 19.7146 9.74556C19.5206 9.75462 19.3321 9.78816 19.1436 9.82622C18.2223 10.0057 17.3033 10.1896 16.3868 10.3781L11.9172 11.2798C11.8982 11.2844 11.8746 11.2943 11.8556 11.2943C11.5203 11.3886 11.4024 11.5399 11.3879 11.8888C11.3834 11.9405 11.3879 11.9931 11.3879 12.0447C11.3834 15.1885 11.3879 18.3323 11.3834 21.4752C11.3834 21.9854 11.3263 22.4856 11.1242 22.9569C10.7889 23.7308 10.1944 24.2175 9.39238 24.4486C8.96843 24.5722 8.53058 24.6419 8.08919 24.6561C6.93282 24.6987 5.96947 23.9293 5.77191 22.7919C5.60154 21.8105 6.05013 20.7529 7.16391 20.2807C7.598 20.1013 8.0466 20.0025 8.50425 19.9083L9.54282 19.6962C10.005 19.5974 10.2461 19.3047 10.2696 18.8325V7.91947C10.2708 7.76782 10.2881 7.61829 10.3213 7.47087C10.4065 7.1265 10.6521 6.92803 10.9819 6.84738C11.2892 6.76672 11.6054 6.71053 11.9163 6.64438C12.8035 6.46494 13.6862 6.2855 14.5734 6.11059L17.3157 5.55325C18.1277 5.39284 18.9343 5.22791 19.7463 5.0675C20.0109 5.01584 20.2801 4.95875 20.5483 4.93972C20.9208 4.90709 21.1809 5.14272 21.2189 5.52063C21.228 5.61065 21.2328 5.70036 21.2334 5.78978V12.7144L21.2353 12.7199Z" fill="#286AFD"/>
</svg>
