<svg width="34" height="24" viewBox="0 0 34 24" fill="none" xmlns="http://www.w3.org/2000/svg">
<g clip-path="url(#clip0_3_9)">
<path d="M33.1479 3.70966C32.9535 2.99257 32.5742 2.33884 32.0478 1.81357C31.5215 1.2883 30.8664 0.90983 30.1478 0.715862C27.5172 0 16.9307 0 16.9307 0C16.9307 0 6.34388 0.0217241 3.71365 0.737586C2.99513 0.931586 2.34008 1.31007 1.81375 1.83533C1.28741 2.3606 0.908164 3.01432 0.71377 3.73138C-0.081913 8.39586 -0.390608 15.503 0.735538 19.9806C0.929932 20.6977 1.30918 21.3514 1.83552 21.8767C2.36185 22.4019 3.0169 22.7804 3.73542 22.9744C6.36585 23.6903 16.9525 23.6903 16.9525 23.6903C16.9525 23.6903 27.5391 23.6903 30.1696 22.9744C30.8881 22.7804 31.5432 22.4019 32.0695 21.8767C32.5958 21.3514 32.9751 20.6977 33.1695 19.9806C34.0085 15.3097 34.2672 8.20697 33.1477 3.70986" fill="#FF0000"/>
<path d="M13.5613 16.9216L22.3436 11.8452L13.5613 6.76855V16.9216Z" fill="white"/>
</g>
<defs>
<clipPath id="clip0_3_9">
<rect width="34" height="24" fill="white"/>
</clipPath>
</defs>
</svg>
