<svg width="77" height="31" viewBox="0 0 77 31" fill="none" xmlns="http://www.w3.org/2000/svg">
<path d="M16.2507 5.2835C15.2027 6.5345 13.5407 7.5275 11.8771 7.3805C11.6594 5.6885 12.4927 3.8855 13.4326 2.783C14.479 1.493 16.2867 0.575 17.7686 0.5C17.9503 2.267 17.2641 3.995 16.2522 5.285L16.2507 5.2835ZM17.7506 7.712C18.6874 7.7855 21.3915 8.078 23.1226 10.682C22.9784 10.793 19.9141 12.59 19.9501 16.367C19.9862 20.882 23.8432 22.385 23.8793 22.4225C23.8432 22.5335 23.2682 24.551 21.8614 26.6405C20.6348 28.4765 19.3736 30.2735 17.3542 30.311C15.4069 30.347 14.7568 29.1365 12.5227 29.1365C10.2871 29.1365 9.56497 30.2735 7.72726 30.347C5.77995 30.419 4.30408 28.4015 3.07744 26.567C0.552096 22.862 -1.35768 16.112 1.23823 11.5625C2.49941 9.2885 4.80705 7.8575 7.29486 7.82C9.20614 7.7855 10.9733 9.1055 12.1264 9.1055C13.2809 9.1055 15.3348 7.5665 17.7506 7.712Z" fill="black"/>
<path d="M42.1594 12.3815V21.7481L44.0016 21.7488V9.02212H41.6643L37.4762 19.1635H37.4043L33.2068 9.02143H30.8789V21.7481H32.7125V12.3815H32.7751L36.694 21.7481H38.1865L42.0961 12.3815H42.1594Z" fill="black"/>
<path d="M52.2792 21.7481H54.1401L54.1394 12.4696H52.1986V17.8761C52.1986 19.3224 51.3538 20.2748 49.9506 20.2748C48.6121 20.2748 47.9285 19.5166 47.9285 18.1057V12.4696H45.987V18.4761C45.987 20.6015 47.2463 21.9153 49.3044 21.9153C50.7515 21.9153 51.7129 21.2896 52.2346 20.1784H52.2792V21.7481Z" fill="black"/>
<path d="M63.1553 15.2124C63.092 13.5018 61.6629 12.3018 59.4609 12.3018C57.2855 12.3018 55.811 13.4401 55.811 15.0986C55.811 16.4471 56.7012 17.2941 58.4988 17.6999L60.0358 18.0523C61.0699 18.2819 61.4204 18.6343 61.4204 19.2343C61.4204 19.9925 60.7008 20.469 59.5328 20.469C58.3462 20.469 57.6719 19.9925 57.492 19.0227H55.5685C55.7477 20.7867 57.1689 21.9243 59.5328 21.9243C61.7615 21.9243 63.3705 20.7603 63.3705 19.0664C63.3705 17.7262 62.6336 16.9854 60.7008 16.5442L59.1637 16.2002C58.1397 15.9706 57.7079 15.5745 57.7079 14.9925C57.7079 14.251 58.4088 13.7488 59.4609 13.7488C60.5482 13.7488 61.2225 14.3134 61.3304 15.2124H63.1553Z" fill="black"/>
<path d="M65.8409 8.92432C65.2213 8.92432 64.7176 9.40919 64.7176 10.0182C64.717 10.3064 64.8354 10.5831 65.0458 10.788C65.2561 10.9928 65.5419 11.1091 65.8409 11.1114C66.4612 11.1114 66.9563 10.6176 66.9563 10.0182C66.9563 9.40988 66.4612 8.92432 65.8409 8.92432Z" fill="black"/>
<path d="M66.8116 12.4696H64.8701V21.7481H66.8116V12.4696Z" fill="black"/>
<path d="M72.7887 13.8896C74.0559 13.8896 74.8108 14.6748 75.0087 15.6626H76.8609C76.6904 13.8369 75.2073 12.3018 72.7714 12.3018C70.0837 12.3018 68.3221 14.1629 68.3221 17.1089C68.3221 20.1069 70.0837 21.9243 72.7894 21.9243C75.0633 21.9243 76.6724 20.5835 76.8789 18.6079H75.0087C74.7841 19.6845 74.0012 20.3282 72.8067 20.3282C71.2962 20.3282 70.2988 19.1462 70.2988 17.1082C70.2988 15.1153 71.2876 13.8896 72.7887 13.8896Z" fill="black"/>
</svg>
