<svg width="234" height="224" viewBox="0 0 234 224" fill="none" xmlns="http://www.w3.org/2000/svg">
<g filter="url(#filter0_d_431_1224)">
<path fill-rule="evenodd" clip-rule="evenodd" d="M139.354 88.5437C139.965 85.5407 140.861 83.6523 141.854 83.6487H141.856C143.707 83.6541 145.207 90.203 145.207 98.2885C145.207 106.374 143.704 112.928 141.852 112.928C141.092 112.928 140.391 111.815 139.827 109.951C138.935 116.777 137.084 121.47 134.942 121.47C133.284 121.47 131.796 118.651 130.797 114.205C130.115 122.661 128.399 128.659 126.393 128.659C125.134 128.659 123.986 126.282 123.136 122.412C122.114 130.402 119.754 136 117.001 136C114.248 136 111.883 130.403 110.865 122.412C110.022 126.282 108.874 128.659 107.608 128.659C105.602 128.659 103.89 122.661 103.204 114.205C102.205 118.651 100.722 121.47 99.0597 121.47C96.9194 121.47 95.0665 116.779 94.1747 109.951C93.6144 111.821 92.9094 112.928 92.1498 112.928C90.2969 112.928 88.7945 106.374 88.7945 98.2885C88.7945 90.203 90.2969 83.6487 92.1498 83.6487C93.1444 83.6487 94.0341 85.5425 94.651 88.5437C95.6394 83.3655 97.2446 80 99.0597 80C101.215 80 103.082 84.7597 103.966 91.6711C104.83 86.6409 106.142 83.4341 107.611 83.4341C109.669 83.4341 111.419 89.7413 112.067 98.5392C113.286 94.0284 115.051 91.1986 117.005 91.1986C118.958 91.1986 120.723 94.0302 121.94 98.5392C122.591 89.7413 124.339 83.4341 126.397 83.4341C127.864 83.4341 129.173 86.6409 130.042 91.6711C130.923 84.7597 132.791 80 134.946 80C136.755 80 138.366 83.3673 139.354 88.5437ZM84 96.8486C84 93.2342 84.8519 90.3034 85.9032 90.3034C86.9545 90.3034 87.8064 93.2342 87.8064 96.8486C87.8064 100.463 86.9545 103.394 85.9032 103.394C84.8519 103.394 84 100.463 84 96.8486ZM146.194 96.8486C146.194 93.2342 147.045 90.3034 148.097 90.3034C149.148 90.3034 150 93.2342 150 96.8486C150 100.463 149.148 103.394 148.097 103.394C147.045 103.394 146.194 100.463 146.194 96.8486Z" fill="#A238FF"/>
</g>
<defs>
<filter id="filter0_d_431_1224" x="0" y="0" width="234" height="224" filterUnits="userSpaceOnUse" color-interpolation-filters="sRGB">
<feFlood flood-opacity="0" result="BackgroundImageFix"/>
<feColorMatrix in="SourceAlpha" type="matrix" values="0 0 0 0 0 0 0 0 0 0 0 0 0 0 0 0 0 0 127 0" result="hardAlpha"/>
<feOffset dy="4"/>
<feGaussianBlur stdDeviation="42"/>
<feComposite in2="hardAlpha" operator="out"/>
<feColorMatrix type="matrix" values="0 0 0 0 0.953333 0 0 0 0 0.965 0 0 0 0 1 0 0 0 1 0"/>
<feBlend mode="normal" in2="BackgroundImageFix" result="effect1_dropShadow_431_1224"/>
<feBlend mode="normal" in="SourceGraphic" in2="effect1_dropShadow_431_1224" result="shape"/>
</filter>
</defs>
</svg>
