<svg width="42" height="34" viewBox="0 0 42 34" fill="none" xmlns="http://www.w3.org/2000/svg">
<path d="M41.1223 5.30921C40.6393 3.21931 39.2163 1.5736 37.4091 1.01506C34.1338 0 21 0 21 0C21 0 7.86624 0 4.59086 1.01506C2.78384 1.5736 1.3606 3.21931 0.87764 5.30921C0 9.097 0 17 0 17C0 17 0 24.9029 0.87764 28.691C1.3606 30.7807 2.78384 32.4264 4.59086 32.9852C7.86624 34 21 34 21 34C21 34 34.1338 34 37.4091 32.9852C39.2163 32.4264 40.6393 30.7807 41.1223 28.691C42 24.9029 42 17 42 17C42 17 42 9.097 41.1223 5.30921Z" fill="#ED1D24"/>
<path d="M16.7051 24.1753L27.6824 17.0003L16.7051 9.82469V24.1753Z" fill="white"/>
</svg>
