<svg width="61" height="61" viewBox="0 0 61 61" fill="none" xmlns="http://www.w3.org/2000/svg">
<path d="M48.5418 27.0389C38.7104 21.2003 22.4935 20.6634 13.1081 23.5119C11.6009 23.9694 10.0071 23.1182 9.55055 21.6115C9.09372 20.1033 9.94364 18.5106 11.452 18.0524C22.2257 14.7822 40.1355 15.4137 51.4537 22.1323C52.8093 22.9372 53.254 24.6879 52.4505 26.0413C51.6464 27.3968 49.8942 27.8437 48.5418 27.0389ZM48.2199 35.6867C47.5301 36.806 46.0667 37.1571 44.9489 36.4698C36.7524 31.4314 24.2539 29.9719 14.5569 32.9154C13.2994 33.2955 11.9711 32.5864 11.5891 31.3313C11.2103 30.0738 11.9196 28.748 13.1749 28.3656C24.2524 25.0041 38.0235 26.6323 47.4376 32.4175C48.5553 33.106 48.9071 34.57 48.2199 35.6867ZM44.4878 43.9918C43.9397 44.8907 42.7695 45.1723 41.8739 44.6244C34.7116 40.247 25.6967 39.2585 15.08 41.6834C14.0569 41.918 13.0373 41.2769 12.804 40.2539C12.5696 39.2312 13.2083 38.2114 14.2336 37.978C25.8518 35.322 35.8179 36.4651 43.857 41.3775C44.7533 41.9249 45.0356 43.0958 44.4878 43.9918ZM30.5001 0C13.6556 0 0 13.6553 0 30.4996C0 47.3458 13.6556 61 30.5001 61C47.3451 61 61 47.3458 61 30.4996C61 13.6553 47.3451 0 30.5001 0Z" fill="#1ED760"/>
</svg>
